<svg width="980" height="551" xmlns="http://www.w3.org/2000/svg" xmlns:xlink="http://www.w3.org/1999/xlink">
<path fill="#ff595e" d="M 602.53 279.51 Q 602.53 279.51 601.17 279.94 599.80 280.37 598.57 280.05 597.33 279.73 596.04 279.59 594.74 279.46 593.53 279.75 592.32 280.04 590.34 280.73 588.36 281.42 587.30 281.81 586.24 282.20 584.72 282.90 583.21 283.60 582.21 284.70 581.20 285.80 580.55 286.98 579.89 288.17 579.31 289.57 578.73 290.97 578.28 292.24 577.84 293.50 577.43 294.76 577.02 296.02 576.72 297.17 576.42 298.32 576.21 299.38 576.01 300.44 575.88 301.74 575.76 303.04 575.68 304.34 575.59 305.64 575.58 306.87 575.56 308.10 575.74 309.28 575.91 310.46 576.30 312.03 576.69 313.61 577.11 315.35 577.53 317.08 578.00 318.40 578.47 319.71 579.06 320.72 579.64 321.74 580.36 322.67 581.08 323.61 581.86 324.39 582.64 325.18 583.55 326.05 584.46 326.91 585.78 327.85 587.10 328.79 588.32 329.38 589.55 329.97 590.89 330.39 592.23 330.81 593.57 331.08 594.92 331.34 596.35 331.63 597.78 331.92 598.96 332.03 600.15 332.13 601.61 332.16 603.08 332.18 604.09 332.07 605.10 331.96 606.24 331.72 607.37 331.48 608.46 331.18 609.54 330.87 610.74 330.46 611.94 330.06 612.87 329.66 613.79 329.26 614.71 328.82 615.62 328.38 616.79 327.32 617.97 326.26 618.85 324.45 619.73 322.64 620.16 321.19 620.59 319.75 620.97 318.27 621.34 316.80 621.63 315.50 621.91 314.20 622.07 313.00 622.23 311.81 622.29 310.51 622.36 309.20 622.39 307.95 622.42 306.70 622.32 305.65 622.22 304.60 622.01 303.01 621.79 301.41 621.47 300.31 621.14 299.21 620.66 298.17 620.17 297.13 619.51 295.94 618.85 294.74 618.00 293.37 617.15 292.00 615.97 290.55 614.79 289.09 613.65 287.88 612.51 286.67 611.78 285.95 611.05 285.23 609.39 284.76 607.74 284.28 606.48 283.91 605.22 283.55 603.18 282.36 601.14 281.18 601.14 281.17 601.14 281.17 601.14 281.16 601.14 281.16 602.73 280.22 604.33 279.29 605.41 279.52 606.49 279.75 607.58 280.07 608.67 280.39 610.24 280.77 611.80 281.16 612.77 281.72 613.73 282.27 614.57 283.08 615.40 283.89 616.63 285.22 617.87 286.54 618.53 287.34 619.19 288.14 619.83 288.95 620.46 289.77 621.40 291.27 622.33 292.76 623.03 294.02 623.72 295.29 624.32 296.58 624.91 297.86 625.33 299.35 625.75 300.83 625.98 302.54 626.21 304.25 626.31 305.52 626.42 306.79 626.38 308.10 626.35 309.41 626.27 310.88 626.19 312.35 626.01 313.70 625.82 315.05 625.52 316.42 625.22 317.79 624.82 319.35 624.42 320.91 623.92 322.55 623.41 324.20 622.79 325.63 622.16 327.06 621.50 328.05 620.84 329.04 620.06 329.82 619.27 330.60 618.32 331.29 617.36 331.97 616.36 332.45 615.37 332.93 614.30 333.39 613.23 333.84 611.92 334.29 610.61 334.73 609.40 335.06 608.19 335.40 606.84 335.67 605.50 335.94 603.44 336.05 601.37 336.16 599.93 336.10 598.49 336.04 597.07 335.81 595.65 335.58 594.13 335.29 592.62 335.00 591.07 334.58 589.52 334.17 587.93 333.55 586.34 332.94 585.01 332.14 583.67 331.35 582.68 330.57 581.68 329.78 580.74 328.89 579.80 328.00 578.89 327.06 577.98 326.13 577.12 325.00 576.26 323.87 575.49 322.50 574.73 321.13 574.18 319.55 573.63 317.98 573.23 316.30 572.82 314.62 572.39 312.87 571.97 311.13 571.77 309.60 571.56 308.07 571.58 306.78 571.60 305.49 571.69 304.08 571.77 302.67 571.92 301.24 572.06 299.80 572.31 298.54 572.56 297.28 572.87 296.09 573.19 294.90 573.61 293.58 574.03 292.27 574.52 290.89 575.01 289.50 575.66 287.94 576.32 286.37 577.13 284.92 577.95 283.47 579.05 282.17 580.16 280.88 581.55 280.07 582.94 279.26 583.91 278.85 584.87 278.44 585.94 278.05 587.00 277.66 588.08 277.27 589.17 276.88 590.26 276.52 591.34 276.16 592.35 275.92 593.36 275.67 594.66 275.59 595.96 275.51 597.05 275.66 598.15 275.81 599.87 276.30 601.59 276.79 602.07 278.14 602.54 279.50 602.54 279.51 Z" data-drauu_index="0"></path><path fill="#ff595e" d="M 607.72 280.24 Q 607.72 280.24 607.66 278.49 607.60 276.74 608.34 275.55 609.07 274.35 609.95 273.03 610.82 271.71 611.95 269.87 613.07 268.03 614.80 265.49 616.53 262.96 618.34 260.29 620.15 257.61 621.87 255.12 623.59 252.63 625.07 250.62 626.55 248.61 627.71 247.13 628.86 245.65 629.68 244.63 630.49 243.61 631.24 242.80 631.98 241.98 632.79 241.17 633.61 240.36 634.34 239.66 635.08 238.95 636.21 238.03 637.34 237.10 638.61 236.15 639.88 235.21 641.28 234.26 642.69 233.32 643.95 232.46 645.21 231.60 646.63 230.73 648.05 229.86 649.29 229.16 650.53 228.46 651.78 227.83 653.03 227.21 654.06 226.66 655.09 226.11 656.40 225.46 657.72 224.80 659.13 224.13 660.54 223.47 661.91 222.83 663.29 222.19 664.67 221.62 666.06 221.04 667.32 220.53 668.59 220.01 669.69 219.59 670.79 219.17 671.89 218.80 673.00 218.43 674.69 217.89 676.38 217.35 678.41 216.71 680.45 216.06 681.52 215.73 682.58 215.39 684.13 214.96 685.67 214.54 687.61 215.00 689.55 215.45 689.55 215.46 689.55 215.46 689.55 215.47 689.55 215.47 688.15 216.87 686.75 218.27 685.27 218.74 683.79 219.20 682.72 219.54 681.64 219.88 679.63 220.52 677.62 221.16 675.94 221.69 674.27 222.22 673.24 222.56 672.22 222.90 671.16 223.31 670.10 223.71 668.84 224.23 667.59 224.74 666.28 225.28 664.97 225.83 663.61 226.45 662.25 227.08 660.87 227.73 659.50 228.38 658.23 229.01 656.97 229.64 655.89 230.21 654.81 230.79 653.66 231.36 652.50 231.94 651.32 232.60 650.15 233.27 648.80 234.09 647.46 234.91 646.19 235.78 644.92 236.64 643.59 237.53 642.26 238.42 641.06 239.31 639.87 240.20 638.15 241.70 636.43 243.20 635.02 244.65 633.62 246.10 632.82 247.11 632.02 248.11 630.89 249.55 629.77 250.98 628.33 252.94 626.88 254.90 625.17 257.38 623.46 259.85 621.65 262.53 619.83 265.21 618.16 267.66 616.48 270.12 615.32 272.02 614.16 273.92 613.32 275.19 612.47 276.46 611.72 277.68 610.96 278.90 609.35 279.57 607.73 280.25 607.73 280.24 Z" data-drauu_index="1"></path><path fill="#ff595e" d="M 684.67 205.59 Q 684.67 205.59 686.69 204.68 688.71 203.76 690.49 203.88 692.28 203.99 693.63 204.07 694.98 204.15 696.41 204.34 697.85 204.52 699.02 205.32 700.19 206.13 700.05 207.67 699.90 209.21 699.16 210.57 698.42 211.92 697.31 213.47 696.20 215.02 695.30 216.30 694.41 217.57 694.03 218.80 693.65 220.02 692.68 221.49 691.71 222.96 691.70 222.96 691.70 222.96 691.69 222.96 691.69 222.96 690.87 220.30 690.05 217.65 690.59 216.47 691.12 215.29 692.06 213.96 693.00 212.62 694.00 211.23 695.01 209.83 696.11 209.15 697.21 208.47 695.98 208.31 694.74 208.15 693.38 208.06 692.02 207.98 690.28 207.87 688.55 207.76 686.61 206.69 684.67 205.61 684.67 205.60 Z" data-drauu_index="2"></path><path fill="#ff595e" d="M 825.56 215.57 Q 825.56 215.57 825.56 215.57 825.57 215.57 825.57 215.57 825.58 215.57 825.57 215.57 Z" data-drauu_index="0"></path>
</svg>